<?xml version="1.0" encoding="UTF-8"?>
<svg id="Layer_2" data-name="Layer 2" xmlns="http://www.w3.org/2000/svg" viewBox="0 0 300.52 301.4">
  <defs>
    <style>
      .cls-1 {
        fill: #030202;
      }

      .cls-3 {
        fill: #585858;
      }

      .cls-4 {
        fill: #a74f4f;
      }

      .cls-5 {
        fill: #b68484;
      }

      .cls-6 {
        fill: #89c2c2;
      }

      .cls-7 {
        fill: #174747;
      }

      .cls-8 {
        fill: #3a8282;
      }

      .cls-9 {
        fill: #449494;
      }

      .cls-10 {
        fill: #818181;
      }

      .cls-11 {
        fill: #672020;
      }

      .cls-12 {
        fill: #825e44;
      }

      .cls-13 {
        fill: #2c2c2c;
      }

      .cls-14 {
        fill: #d3d3d3;
      }

      .cls-15 {
        fill: #997b74;
      }

      .cls-16 {
        fill: #5d3c2c;
      }

      .cls-17 {
        fill: #310000;
      }
    </style>
  </defs>
  <g id="Layer_1-2" data-name="Layer 1">
    <g>
      <path class="cls-1" d="m227.78,245.66c1.93,9.3-.2,17.5-6.83,24.36-8.94,9.26-20.28,14.21-32.35,17.9-6.16,1.89-12.19,4.23-18.33,6.2-9.52,3.04-19.12,5.74-29.2,6.2-1.13.05-2.25.27-3.37.41-1.74.11-3.48.21-5.21.32-1.14.03-2.29.06-3.43.08-3.26,0-6.51,0-9.77,0-1.02-.04-2.04-.08-3.06-.11-1.17-.1-2.33-.21-3.5-.31-1.07,0-2.15,0-3.22,0-.31-.01-.61-.03-.92-.04-1.12-.11-2.24-.22-3.37-.33-6.55-.91-13.08-2.02-19.65-2.68-9-.89-17.51-3.59-25.88-6.71-9.84-3.67-19.54-7.85-27.67-14.67-7.46-6.26-14.54-12.98-21.66-19.63-4.41-4.12-8.2-8.87-9.59-14.86-.81-3.48-.78-7.21-.75-10.83.33-38.86.67-77.73,1.15-116.59.21-16.4.79-32.8,1.17-49.2.16-6.76,1.49-13.35,4.83-19.14,2.49-4.33,6.03-8.12,9.49-11.8,3.44-3.67,7.17-7.12,11.1-10.26,7.5-5.98,16.11-10.12,25.22-12.83,10.82-3.23,21.81-5.95,32.83-8.4,5.22-1.16,10.69-1.15,16.05-1.67,1.19-.11,2.37-.22,3.56-.33.85-.05,1.7-.11,2.54-.16.76,0,1.53.01,2.29.02,1.61-.08,3.23-.16,4.84-.24l.71-.09c3.77,0,7.54,0,11.31,0,.24.03.48.06.71.09,1.61.08,3.22.17,4.83.25.77,0,1.53-.01,2.3-.02,1,.02,1.99.03,2.99.05,0,0-.03.05-.03.05,1.56.13,3.12.26,4.69.39,0,0-.03,0-.03,0,1.28.16,2.56.33,3.83.49,5.03.74,10.15,1.13,15.08,2.3,9.99,2.38,20.12,4.54,29.75,8.01,7.91,2.86,15.45,7.05,22.67,11.45,7.99,4.87,14.16,11.69,17.1,20.89.55,1.74.9,3.59,1.01,5.42.6,10.62,1.15,21.25,1.61,31.89.1,2.37-.21,4.77-.33,7.15-.13.26-.26.53-.38.79-.14,2.03-.18,4.06-.43,6.07-.2,1.62.32,2.14,1.86,1.66,2.52,0,5.04,0,7.56.01,4.41.9,8.9,1.55,13.22,2.76,9.15,2.55,17.64,6.54,25.12,12.51,5.95,4.74,11.19,10.12,15.03,16.76,4.75,8.2,5.92,17.11,4.93,26.33-1.38,12.78-5.47,24.68-12.73,35.34-4.86,7.15-11.2,12.79-18.37,17.63-9.22,6.24-19.48,9.66-30.23,11.9-.56.12-1.16.05-1.74.07-1,0-2.01,0-3.01.01-1.78.15-3.57.3-5.35.44-.35,8.1-.69,16.2-1.04,24.3-.04.04-.13.1-.12.12.05.1.12.19.18.28Zm13.21-53.19s-.03.04-.03.04c.55-.1,1.11-.19,1.66-.29l.12-.06h.14c.43-.1.86-.21,1.29-.32l.13-.06h.14c.41-.12.83-.24,1.24-.37,8.88-3.09,16.38-8.09,21.89-15.83,3.85-5.41,6.79-11.25,6.21-18.05-.77-9.03-5.55-16.09-12.36-21.67-9.17-7.51-19.91-12.04-31.17-15.43-.3-.09-1.14.5-1.19.84-.27,1.95-.35,3.92-.55,5.89-2.25,22.17-1.52,44.35-.51,66.55l1.06.06c.86-.16,1.73-.31,2.59-.47.78,0,1.56,0,2.35,0,.84-.1,1.68-.21,2.52-.31,1.24-.13,2.48-.25,3.72-.38.25-.04.5-.08.76-.12Zm-138.33,103.63c.52.1,1.05.2,1.57.3l3.11.04.14-.02s.14.04.14.04c.82.1,1.65.2,2.47.3.62.03,1.23.07,1.85.1,2.33.11,4.67.22,7,.34,3.98-.01,7.96-.03,11.93-.04,1.71-.1,3.42-.19,5.12-.29.25-.01.49-.03.74-.04,1.18-.11,2.35-.21,3.53-.32l3.08-.49c5.68-1.07,11.51-1.65,17.01-3.32,11.99-3.64,23.84-7.73,35.68-11.82,8.9-3.07,17.18-7.39,23.26-14.78,2.17-2.64,3.86-6.13,4.5-9.47.95-4.92.99-10.07,1.03-15.12.13-15.62.4-31.25.02-46.86-.52-21.5-1.61-42.99.29-64.48.02-.26.03-.52.05-.77.76-6.74,1.47-13.49,2.31-20.22.84-6.73,2.27-13.42,2.61-20.17.46-9.13.12-18.29.13-27.44,0-.21-.01-.43-.02-.64-.16.2-.31.39-.47.59-4.52,9.51-12.33,15.74-21.1,20.95-10.53,6.25-21.93,10.45-33.8,13.21-8.08,1.88-16.3,3.12-24.46,4.65-2.35.26-4.7.52-7.06.77,0,0,.03,0,.03,0-1.59.11-3.18.23-4.76.34-1.36.05-2.73.09-4.09.14-.93.08-1.86.16-2.79.24-1.4.05-2.8.09-4.19.14-3.64,0-7.27,0-10.91-.01-1.8-.05-3.61-.09-5.41-.14-1.05-.08-2.1-.16-3.16-.24-1.29,0-2.58-.02-3.87-.03l-1.11-.04c-1.18-.12-2.35-.23-3.53-.35-1.27-.14-2.54-.28-3.8-.41-1.06-.12-2.13-.25-3.19-.37-1.07-.13-2.16-.18-3.21-.4-9.12-1.91-18.35-3.41-27.3-5.92-7.42-2.08-14.5-5.35-21.73-8.1-5.61-3.7-11.63-6.92-16.75-11.2-9.27-7.76-15.01-17.33-11.93-30.17.17-.66.33-1.31.5-1.97-.3.52-.59,1.05-.89,1.57-1.95,5.63-5.29,11.19-5.6,16.92-1.13,20.8-1.42,41.66-1.68,62.5-.21,17.04.17,34.08.1,51.12-.06,14.52-.39,29.03-.6,43.54-.05,3.35.12,6.71-.12,10.04-.52,7.37,1.06,14.21,5.34,20.2,2.14,2.99,4.84,5.62,7.54,8.16,5.66,5.33,11.15,10.94,17.35,15.59,5.69,4.26,12.13,7.55,18.39,10.99,3.42,1.87,7.16,3.15,10.76,4.7.65.14,1.3.28,1.95.42,9.56,2.18,19.11,4.37,28.67,6.55.9.27,1.8.53,2.71.8.28-.02.55-.05.83-.07.75.02,1.5.04,2.25.06.73.11,1.46.22,2.19.33.45.04.9.08,1.35.12ZM117.74,19.04c.65-.05,1.3-.1,1.95-.15l1.94-.31c.13-.03.25-.06.38-.09,1.17-.11,2.34-.21,3.52-.32,3.38-.02,6.76-.05,10.13-.07,1.37.21,2.76.36,4.11.63,5.97,1.22,11.93,2.48,17.9,3.73,12.34,5.03,24.74,9.9,36.98,15.16,4.35,1.87,8.48,4.38,12.39,7.07,7.58,5.23,11.37,12.59,11.11,21.9.11-.01.23-.02.34-.04,3.87-6.04,6.19-12.63,3.91-19.63-5.21-15.96-16.55-25.82-32.36-30.83-2.63-.83-5.17-1.96-7.81-2.78-8.27-2.58-16.57-5.09-24.86-7.62-1.55-.28-3.1-.56-4.64-.84-1.94-.35-3.89-.71-5.83-1.06-.26-.04-.52-.09-.78-.13-.26-.1-.52-.2-.77-.3h-.02c-1.04-.12-2.09-.25-3.13-.37-1.02-.12-2.04-.24-3.07-.37-.91-.13-1.83-.25-2.74-.38h.01c-1.29-.11-2.58-.23-3.86-.34-.12-.04-.25-.06-.38-.06-3.76,0-7.53,0-11.29,0-1.26.14-2.51.27-3.77.41-1.85,0-3.7,0-5.56,0-.49,0-.98-.02-1.47-.02-3.01,0-6.02,0-9.03,0-2.61.42-5.26.68-7.83,1.31-8.75,2.13-17.53,4.16-26.17,6.67-8.26,2.4-16.57,4.86-24.48,8.19-9.19,3.86-18.16,8.2-23.87,17.31-3.89,6.21-5.1,12.56-3.96,19.58.36.66.73,1.32,1.09,1.98,1.12,4.62,3.79,8.3,7.06,11.61.12.13.24.27.36.4.25.13.5.26.76.4,3.22,2.32,6.44,4.64,9.67,6.96,3.36,1.94,6.62,4.06,10.09,5.78,3.16,1.56,6.79,2.28,9.76,4.1,5.57,3.43,11.35,6.18,17.81,7.25,8.34,1.38,16.68,3.1,25.09,3.69,8.17.58,16.43.02,24.65-.25,4.03-.13,8.04-.84,12.07-1.12,4.72-.34,9.46-.36,14.16-.79,5.54-.51,11.04-1.43,16.58-1.95,6.82-.65,13.54-1.56,19.72-4.79,1.12-.59,2.36-.95,3.55-1.42,5.35-2.58,10.7-5.15,16.05-7.73,5.81-3.14,10.87-6.33,11.68-14.21.7-6.8-.62-12.25-5.8-16.29-4.52-3.54-9.36-6.94-14.56-9.29-7.3-3.29-14.2-7.63-22.46-8.75-5.51-.75-10.95-2.34-16.3-3.94-9.87-2.95-19.82-5.16-30.21-4.55-9.05.53-18.12.91-27.15,1.64-5.69.46-11.46.91-16.97,2.26-13.39,3.27-26.7,6.87-39.94,10.69-9.83,2.83-18.69,7.42-24.48,16.43-.13-.39-.27-.77-.4-1.16l.16-.37.24-.37c3.52-6.3,9.06-10.43,15.55-12.84,8.62-3.2,17.45-5.93,26.35-8.21,13.2-3.38,26.55-6.18,39.84-9.23.78-.1,1.55-.21,2.33-.31.25-.03.51-.06.76-.09.41-.1.81-.2,1.22-.31.5-.03,1-.05,1.5-.08.65-.1,1.3-.2,1.96-.3.13-.02.26-.05.38-.07.66-.1,1.32-.2,1.97-.31.11-.05.23-.08.36-.08.92-.12,1.83-.24,2.75-.36h0c1.28-.02,2.56-.04,3.83-.06.64-.08,1.29-.16,1.93-.23Zm122.94,82.31c-1.96,0-3.93.02-5.89.03-2.11-.59-3.25.07-3.45,2.4-.27,3.09-.77,6.15-1.09,9.24-.09.91-.22,2.42.23,2.69,2.14,1.26,4.44,2.3,6.76,3.21,4.16,1.63,8.48,2.88,12.57,4.68,10.34,4.55,18.98,11.16,24.58,21.24,4.92,8.85,5.11,17.9.55,26.85-3.52,6.93-8.42,12.77-14.9,17.29-6.9,4.81-14.46,7.52-22.78,8.26-1.23.11-2.45.22-3.68.34-.64.03-1.29,0-1.92.1-2.32.34-3.79,1.04-3.47,4.07.5,4.77.38,9.61.53,14.41,1.94.04,3.87.08,5.81.12.34-.04.67-.08,1.01-.11.96-.11,1.92-.22,2.88-.32,2.04-.39,4.12-.67,6.13-1.18,14.03-3.55,26.06-10.53,35.73-21.35,5.82-6.51,9.46-14.34,12.23-22.51,1.42-4.21,1.99-8.71,2.91-13.08,1.35-6.4.94-12.79-.78-19.02-1.87-6.79-5.95-12.31-10.85-17.27-6.37-6.46-13.72-11.54-22.19-14.69-5.27-1.96-10.84-3.08-16.28-4.57-1.55-.27-3.09-.54-4.64-.81Z"/>
      <path class="cls-1" d="m127.11.27c-3.77,0-7.54,0-11.31,0,.05-.09.09-.18.12-.27,3.69,0,7.37,0,11.06.01.04.09.08.18.13.26Z"/>
      <path class="cls-1" d="m119.29,301.12c3.26,0,6.51,0,9.77,0-.05.09-.1.18-.15.27-3.15,0-6.3,0-9.45-.01-.05-.09-.11-.18-.17-.27Z"/>
      <path class="cls-4" d="m241.89,97.21c-2.52,0-5.04,0-7.56-.01,2.52,0,5.04,0,7.56.01Z"/>
      <path class="cls-1" d="m228.76,220.97c1.78-.15,3.57-.3,5.35-.44-.05.09-.1.19-.15.28-1.73.06-3.47.11-5.2.17Z"/>
      <path class="cls-1" d="m132.49,301.05c1.74-.11,3.47-.21,5.21-.32-1.35.15-2.7.3-4.04.46-.39-.05-.78-.09-1.17-.14Z"/>
      <path class="cls-1" d="m132.65.61c-1.61-.08-3.22-.17-4.83-.25.79-.04,1.59-.09,2.38-.13.75.04,1.49.07,2.24.11.07.09.14.18.21.27Z"/>
      <path class="cls-1" d="m132.49,301.05c.39.05.78.09,1.17.14-1.58.07-3.17.15-4.75.22.05-.09.1-.18.15-.27,1.14-.03,2.29-.06,3.43-.08Z"/>
      <path class="cls-1" d="m115.09.36c-1.61.08-3.23.16-4.84.24.07-.09.15-.17.22-.26.62-.03,1.24-.06,1.86-.09.92.04,1.84.08,2.77.11Z"/>
      <path class="cls-4" d="m142.6,1.08c-1.56-.13-3.12-.26-4.69-.39,1.56.13,3.12.26,4.69.39Z"/>
      <path class="cls-1" d="m119.29,301.12c.06.09.11.18.17.27-1.6-.09-3.2-.17-4.81-.26.53-.04,1.06-.08,1.58-.12,1.02.04,2.04.08,3.06.11Z"/>
      <path class="cls-4" d="m146.4,1.57c-1.28-.16-2.56-.33-3.83-.49,1.28.16,2.56.33,3.83.49Z"/>
      <path class="cls-1" d="m115.09.36c-.92-.04-1.84-.08-2.77-.11,1.2-.08,2.4-.16,3.6-.25-.04.09-.08.18-.12.27-.24.03-.47.06-.71.09Z"/>
      <path class="cls-1" d="m105.41.74c-1.19.11-2.37.22-3.56.33,1.04-.15,2.08-.3,3.13-.46.14.04.29.09.43.13Z"/>
      <path class="cls-1" d="m116.23,301.01c-.53.04-1.06.08-1.58.12-.61-.05-1.21-.1-1.82-.15-.02-.1-.05-.2-.1-.28,1.17.1,2.33.21,3.5.31Z"/>
      <path class="cls-1" d="m233.96,220.8c.05-.09.1-.18.15-.28,1,0,2.01,0,3.01-.01-1.05.1-2.11.19-3.16.29Z"/>
      <path class="cls-1" d="m130.21.23c-.79.04-1.59.09-2.38.13-.24-.03-.48-.06-.72-.09-.05-.09-.09-.17-.13-.26,1.08.07,2.15.15,3.23.22Z"/>
      <path class="cls-1" d="m105.41.74c-.14-.04-.29-.09-.43-.13,1.04-.1,2.07-.2,3.11-.3-.06.08-.1.18-.13.27-.85.05-1.7.11-2.54.16Z"/>
      <path class="cls-1" d="m137.95.64c-1-.02-1.99-.03-2.99-.05-.03-.1-.07-.19-.13-.28l3.12.33Z"/>
      <path class="cls-9" d="m105.23,300.33c1.12.11,2.24.22,3.37.33-1.12-.11-2.24-.22-3.37-.33Z"/>
      <path class="cls-1" d="m112.74,300.69c.05.09.08.18.1.28-1.1-.09-2.21-.18-3.32-.28,1.07,0,2.14,0,3.22,0Z"/>
      <path class="cls-1" d="m107.96.58c.03-.1.07-.19.13-.27.79.01,1.58.02,2.38.03-.07.09-.14.18-.22.26-.76,0-1.53-.01-2.29-.02Z"/>
      <path class="cls-1" d="m134.82.31c.06.09.1.18.13.28-.77,0-1.53.01-2.3.02-.07-.09-.14-.18-.2-.27.79,0,1.58-.02,2.37-.03Z"/>
      <path class="cls-10" d="m232.9,89.47c.13-.26.26-.53.38-.79-.13.26-.26.53-.38.79Z"/>
      <path class="cls-1" d="m227.78,245.66c-.06-.09-.13-.18-.18-.28,0-.02.08-.08.12-.12.03.09.07.17.09.26,0,.04-.02.09-.03.14Z"/>
      <path class="cls-14" d="m99.13,295.66c-.75-.02-1.5-.04-2.25-.06-.29-.2-.59-.4-.88-.6-.22-.07-.44-.14-.66-.21-.24-.28-.42-.64-.72-.84-16.89-11.3-29.87-26.29-40.65-43.3-2.94-4.64-6.43-9.04-6.89-14.93-.8-10.14-1.97-20.25-2.7-30.39-1.16-16.19-2.1-32.4-3.1-48.6-.25-4.12-.34-8.24-.51-12.37-.31-7.66-.82-15.32-.89-22.99-.06-6.05.59-12.11.59-18.16,0-5.08-.5-10.16-.71-15.25-.03-.68.36-1.38.55-2.07,7.23,2.75,14.31,6.02,21.73,8.1,8.95,2.51,18.18,4.01,27.3,5.92,1.05.22,2.14.27,3.21.4,1.06.12,2.13.25,3.19.37,1.27.14,2.54.28,3.8.41,1.18.12,2.35.23,3.53.35.37.01.74.03,1.11.04,1.32.1,2.64.2,3.96.3.75.03,1.51.06,2.26.09,2.08.09,4.16.18,6.23.28,3.59.01,7.19.03,10.78.04,2.09-.1,4.18-.21,6.27-.31.24-.03.48-.05.72-.08,1.59-.09,3.17-.19,4.76-.28,1.4-.15,2.8-.31,4.2-.46,0,0-.03,0-.03,0,2.35-.26,4.7-.52,7.06-.77,8.16-1.53,16.38-2.77,24.46-4.65,11.87-2.77,23.27-6.96,33.8-13.21,8.76-5.21,16.58-11.44,21.1-20.95.16.02.32.04.48.05,0,9.15.33,18.32-.13,27.44-.34,6.75-1.77,13.44-2.61,20.17-.84,6.73-1.54,13.48-2.31,20.22-.02.26-.03.52-.05.77-1.9,21.49-.81,42.98-.29,64.48.38,15.61.11,31.24-.02,46.86-.04,5.05-.08,10.19-1.03,15.12-.65,3.35-2.33,6.83-4.5,9.47-6.08,7.39-14.36,11.71-23.26,14.78-11.84,4.09-23.69,8.19-35.68,11.82-5.5,1.67-11.33,2.25-17.01,3.32-1.17.12-2.34.24-3.51.35-1.03.15-2.06.31-3.09.46-.25.01-.49.03-.74.04-1.66,0-3.32.01-4.99.02-4.06.02-8.13.04-12.19.06-1.77-.06-3.54-.13-5.3-.19-1.19-.09-2.37-.17-3.56-.26-.78,0-1.56-.01-2.34-.02l-.14-.04s-.14.02-.14.02c-1.06-.11-2.11-.23-3.17-.34-.24-.04-.48-.08-.71-.12-.8-.1-1.61-.2-2.41-.31l-1.93-.02Z"/>
      <path class="cls-17" d="m17.01,53.39c5.78-9.01,14.65-13.6,24.48-16.43,13.24-3.82,26.55-7.42,39.94-10.69,5.51-1.35,11.28-1.8,16.97-2.26,9.04-.72,18.1-1.11,27.15-1.64,10.39-.61,20.33,1.6,30.21,4.55,5.35,1.6,10.79,3.19,16.3,3.94,8.26,1.12,15.16,5.46,22.46,8.75,5.2,2.34,10.03,5.75,14.56,9.29,5.18,4.05,6.49,9.49,5.8,16.29-.81,7.88-5.86,11.07-11.68,14.21.24-2.78,1.13-5.71.56-8.32-.83-3.85-2.64-7.5-4.14-11.18-3.37-8.25-10.06-13.19-17.65-17.04-2.88-1.46-6.08-2.3-9.13-3.43-.29-.1-.57-.21-.86-.31-.1-.02-.2-.04-.3-.08-.29-.1-.58-.21-.86-.31-.1-.02-.2-.04-.3-.08-.29-.1-.58-.2-.86-.31-.1-.02-.2-.04-.3-.07-1.11-.27-2.21-.54-3.32-.81-.31-.22-.62-.45-.93-.67-.27-.07-.54-.13-.81-.2-.77-.24-1.55-.47-2.32-.71-.22-.12-.43-.3-.66-.34-1.06-.2-2.12-.35-3.19-.53,1.02.44,2.05.88,3.07,1.32,1.04.48,2.09.97,3.13,1.45,1.04.48,2.08.96,3.12,1.44.15.07.3.15.44.22.09.09.19.17.28.26.11.08.23.12.36.13.15.07.31.15.46.22l.13.07c.22.12.43.23.65.35l.1.05c.22.12.45.24.67.37l.07.03c.22.15.44.31.66.46h0c.14.12.27.23.41.34,7.16,3.97,14.41,7.86,19.96,14.04,5.57,6.21,6.6,13.45,2.47,20.65-2.12,3.7-4.64,7.16-6.98,10.73-1.19.47-2.43.83-3.55,1.42-6.18,3.23-12.9,4.14-19.72,4.79-5.54.53-11.04,1.44-16.58,1.95-4.7.43-9.45.45-14.16.79-4.03.29-8.04.99-12.07,1.12-8.22.27-16.48.83-24.65.25-8.41-.59-16.74-2.31-25.09-3.69-6.46-1.07-12.23-3.82-17.81-7.25-2.97-1.83-6.6-2.54-9.76-4.1-3.47-1.72-6.74-3.84-10.09-5.78-.38-4.13-1.35-8.3-1.02-12.37.67-8.26,4.39-14.79,12.31-18.53,4.13-1.95,7.99-4.45,11.97-6.7,1.01-.41,2.02-.82,3.03-1.23-1.01-.06-2.03-.22-3.03-.15-.8.05-1.57.38-2.36.59-1.71.27-3.42.59-5.14.8-11.22,1.38-28.51,14.07-26.55,29.84-3.27-3.31-5.94-6.99-7.06-11.61.4-1.29.8-2.58,1.21-3.88Z"/>
      <path class="cls-10" d="m40.31,85.91c-.19.69-.58,1.39-.55,2.07.21,5.08.71,10.17.71,15.25,0,6.05-.65,12.11-.59,18.16.07,7.67.57,15.33.89,22.99.17,4.12.26,8.25.51,12.37.99,16.2,1.94,32.41,3.1,48.6.73,10.14,1.9,20.25,2.7,30.39.46,5.88,3.95,10.29,6.89,14.93,10.78,17.01,23.76,32,40.65,43.3.29.2.48.56.72.84-.66.02-1.33.05-1.99.07-9.56-2.18-19.11-4.37-28.67-6.55-.65-.14-1.3-.28-1.95-.42-3.6-1.55-7.34-2.83-10.76-4.7-6.27-3.43-12.71-6.73-18.39-10.99-6.2-4.65-11.68-10.26-17.35-15.59-2.69-2.53-5.4-5.17-7.54-8.16-4.28-5.99-5.86-12.83-5.34-20.2.23-3.33.07-6.69.12-10.04.2-14.51.54-29.03.6-43.54.07-17.04-.31-34.09-.1-51.12.26-20.84.55-41.7,1.68-62.5.31-5.72,3.65-11.28,5.6-16.92.13.13.26.26.39.39-3.09,12.84,2.65,22.41,11.93,30.17,5.12,4.29,11.14,7.5,16.75,11.2Z"/>
      <path class="cls-14" d="m228.72,216.15c-.14-4.81-.02-9.64-.53-14.41-.32-3.03,1.15-3.72,3.47-4.07.63-.09,1.28-.07,1.92-.1,1.23-.11,2.45-.22,3.68-.34,8.32-.75,15.88-3.45,22.78-8.26,6.49-4.52,11.38-10.36,14.9-17.29,4.56-8.96,4.37-18-.55-26.85-5.6-10.08-14.25-16.69-24.58-21.24-4.08-1.8-8.4-3.06-12.57-4.68-2.32-.91-4.62-1.94-6.76-3.21-.46-.27-.33-1.77-.23-2.69.31-3.08.82-6.15,1.09-9.24.2-2.33,1.34-2.98,3.45-2.4,1.69.03,3.38.07,5.07.1,1.82.23,3.64.45,5.45.68,5.44,1.5,11.02,2.62,16.28,4.57,8.48,3.15,15.82,8.23,22.19,14.69,4.9,4.96,8.97,10.49,10.85,17.27,1.72,6.23,2.13,12.62.78,19.02-.92,4.37-1.49,8.87-2.91,13.08-2.76,8.17-6.4,15.99-12.23,22.51-9.67,10.82-21.7,17.8-35.73,21.35-2.01.51-4.08.79-6.13,1.18-.96.11-1.92.22-2.88.32-.34.04-.67.08-1.01.11-1.94-.04-3.87-.08-5.81-.12Z"/>
      <path class="cls-14" d="m152.72,4.85c1.55.28,3.1.56,4.64.84.15.74.43,1.47.44,2.21.06,3.61.07,7.22.06,10.83,0,1.24-.12,2.48-.18,3.71-5.96-1.25-11.93-2.51-17.9-3.73-1.36-.28-2.74-.43-4.11-.63-3.78-.01-7.55-.03-11.33-.04-.77.14-1.55.29-2.32.43-.13.03-.25.06-.38.09-.63,0-1.26,0-1.89,0-1.03.11-2.07.23-3.1.34-.26.01-.52.03-.78.04-1.3.12-2.59.24-3.89.36h0c-.92.12-1.83.24-2.75.36-.12,0-.24.03-.36.08-.66.1-1.31.2-1.97.31-.13.02-.26.05-.38.07-.65.1-1.3.2-1.96.3-.5.03-1,.05-1.5.08-.41.1-.81.2-1.22.31-.25.03-.51.06-.76.09-.78.1-1.55.21-2.33.31-13.29,3.05-26.64,5.85-39.84,9.23-8.91,2.28-17.74,5.01-26.35,8.21-6.49,2.41-12.04,6.54-15.55,12.84-.08.12-.16.25-.24.37-.05.12-.11.25-.16.37-.63,1.02-1.27,2.04-1.9,3.06-1.14-7.02.07-13.37,3.96-19.58,5.71-9.11,14.69-13.45,23.87-17.31,7.91-3.33,16.22-5.79,24.48-8.19,8.64-2.51,17.42-4.54,26.17-6.67,2.56-.62,5.22-.88,7.83-1.31,3.01,0,6.02,0,9.03,0,.49,0,.98.02,1.47.02,1.85,0,3.7,0,5.55,0,1.26-.14,2.51-.27,3.77-.41,3.76,0,7.53,0,11.29,0,.13,0,.26.02.38.06,1.29.11,2.58.23,3.86.34,0,0-.01,0-.01,0,.91.13,1.83.25,2.74.38,1.02.12,2.04.24,3.07.37,1.04.12,2.09.25,3.13.37,0,0,.02,0,.02,0,.26.1.52.2.77.3.26.04.52.09.78.13,1.94.35,3.89.71,5.83,1.06Z"/>
      <path class="cls-10" d="m157.67,22.46c.06-1.24.18-2.48.18-3.71.01-3.61,0-7.22-.06-10.83-.01-.74-.29-1.48-.44-2.21,8.29,2.53,16.59,5.04,24.86,7.62,2.64.82,5.18,1.95,7.81,2.78,15.82,5.01,27.15,14.87,32.36,30.83,2.28,7-.03,13.59-3.91,19.63-.12-.01-.23,0-.34.04.26-9.31-3.53-16.67-11.11-21.9-3.9-2.69-8.04-5.21-12.39-7.07-12.24-5.25-24.64-10.13-36.98-15.16Z"/>
      <path class="cls-2" d="m168.54,39.83c-.13,0-.25-.05-.36-.13-.09-.09-.19-.17-.29-.26-.15-.07-.3-.15-.44-.22.63-.31,1.27-.63,1.9-.94.1.03.2.06.3.07.29.1.58.2.86.31.1.03.2.06.3.08.29.1.58.21.86.31.1.03.2.06.3.08.29.1.57.21.86.31,3.05,1.12,6.25,1.96,9.13,3.43,7.59,3.86,14.27,8.79,17.65,17.04,1.51,3.69,3.31,7.33,4.14,11.18.57,2.61-.32,5.54-.56,8.32-5.35,2.58-10.7,5.16-16.05,7.73,2.34-3.57,4.86-7.03,6.98-10.73,4.12-7.2,3.1-14.44-2.47-20.65-5.55-6.18-12.8-10.07-19.96-14.04-.14-.11-.27-.23-.41-.34h0c-.22-.16-.44-.31-.66-.47l-.07-.03c-.22-.12-.45-.24-.67-.37l-.1-.05c-.22-.12-.43-.23-.65-.35,0,0-.13-.07-.13-.07-.15-.07-.31-.15-.46-.22Z"/>
      <path class="cls-12" d="m22.87,68.88c-1.95-15.77,15.33-28.46,26.55-29.84,1.72-.21,3.43-.53,5.14-.8.79.26,1.58.53,2.36.79-3.98,2.25-7.85,4.75-11.97,6.7-7.92,3.74-11.65,10.27-12.31,18.53-.33,4.07.64,8.24,1.02,12.37-3.22-2.32-6.44-4.64-9.67-6.96-.25-.13-.5-.26-.76-.4-.12-.13-.24-.27-.36-.4Z"/>
      <path class="cls-1" d="m14.71,55.29c.63-1.02,1.27-2.04,1.9-3.06.13.39.27.77.4,1.16-.4,1.29-.8,2.58-1.21,3.88-.37-.66-.73-1.32-1.1-1.98Z"/>
      <path class="cls-14" d="m118.83,296.94c4.06-.02,8.13-.04,12.19-.06-.04.09-.09.18-.14.27-3.98.01-7.96.03-11.93.04-.05-.08-.09-.16-.12-.25Z"/>
      <path class="cls-6" d="m132.14,1.85c-3.76,0-7.53,0-11.29,0,3.76,0,7.53,0,11.29,0Z"/>
      <path class="cls-14" d="m124.33,18.05c3.78.01,7.55.03,11.33.04-3.38.02-6.76.05-10.13.07-.4-.04-.8-.08-1.19-.12Z"/>
      <path class="cls-1" d="m127.41,102.2c-3.59-.01-7.19-.03-10.78-.04,0-.08-.02-.17-.02-.25,3.64,0,7.27,0,10.91.01-.03.09-.07.19-.11.28Z"/>
      <path class="cls-6" d="m110.05,2.23c-3.01,0-6.02,0-9.03,0,3.01,0,6.02,0,9.03,0Z"/>
      <path class="cls-8" d="m150.39,100.29c-2.35.26-4.7.52-7.06.77,2.35-.26,4.7-.52,7.06-.77Z"/>
      <path class="cls-14" d="m118.83,296.94c.03.09.07.17.12.25-2.33-.11-4.67-.22-7-.34.53-.04,1.05-.07,1.58-.11,1.77.06,3.54.13,5.3.19Z"/>
      <path class="cls-9" d="m152.72,4.85c-1.94-.35-3.89-.71-5.83-1.06,1.94.35,3.89.71,5.83,1.06Z"/>
      <path class="cls-1" d="m127.41,102.2c.04-.09.07-.19.11-.28,1.4-.05,2.8-.09,4.19-.14.66.04,1.31.07,1.97.11-2.09.1-4.18.21-6.27.31Z"/>
      <path class="cls-1" d="m116.61,101.9c0,.08.02.17.02.25-2.08-.09-4.16-.18-6.23-.28.27-.04.53-.08.8-.12,1.8.05,3.61.09,5.41.14Z"/>
      <path class="cls-11" d="m228.72,216.15c1.94.04,3.87.08,5.81.12-1.94-.04-3.87-.08-5.81-.12Z"/>
      <path class="cls-1" d="m239.86,101.48c-1.69-.03-3.38-.07-5.07-.1,1.96,0,3.93-.02,5.89-.03-.27.04-.54.09-.82.13Z"/>
      <path class="cls-1" d="m239.86,101.48c.27-.04.54-.09.82-.13,1.55.27,3.09.54,4.64.81-1.82-.23-3.64-.45-5.45-.68Z"/>
      <path class="cls-9" d="m117.08,2.25c-1.85,0-3.7,0-5.55,0,1.85,0,3.7,0,5.55,0Z"/>
      <path class="cls-14" d="m130.88,297.15c.05-.09.1-.18.14-.27,1.66,0,3.32-.01,4.99-.02-1.71.1-3.42.19-5.12.29Z"/>
      <path class="cls-1" d="m139.16,101.53c-1.59.09-3.17.19-4.76.28.03-.09.06-.18.1-.27,1.36-.05,2.73-.09,4.09-.14.19.04.38.08.56.12Z"/>
      <path class="cls-1" d="m139.16,101.53c-.19-.04-.38-.08-.56-.12,1.59-.11,3.18-.23,4.76-.34-1.4.15-2.8.31-4.2.46Z"/>
      <path class="cls-14" d="m111.98,19.33c1.3-.12,2.59-.24,3.89-.36-.01.1-.03.2-.05.3-1.28.02-2.56.04-3.83.06Z"/>
      <path class="cls-6" d="m136.38,2.25c-1.29-.11-2.58-.23-3.86-.34,1.29.11,2.58.23,3.86.34Z"/>
      <path class="cls-1" d="m108.14,101.79c-1.32-.1-2.64-.2-3.96-.3,1.29,0,2.58.02,3.87.03.04.09.07.18.1.27Z"/>
      <path class="cls-14" d="m113.53,296.75c-.53.04-1.05.07-1.58.11-.62-.03-1.23-.07-1.85-.1-.05-.09-.09-.18-.14-.27l3.56.26Z"/>
      <path class="cls-14" d="m124.33,18.05c.4.04.8.08,1.19.12-1.17.11-2.34.21-3.52.32.77-.14,1.55-.29,2.32-.43Z"/>
      <path class="cls-10" d="m93.34,294.87c.66-.02,1.33-.05,1.99-.07.22.07.44.14.66.21.02.22.04.45.06.67-.9-.27-1.8-.53-2.71-.8Z"/>
      <path class="cls-9" d="m103.06,101.45c-1.18-.12-2.35-.23-3.53-.35,1.18.12,2.35.23,3.53.35Z"/>
      <path class="cls-8" d="m237.26,197.23c-1.23.11-2.45.22-3.68.34,1.23-.11,2.45-.22,3.68-.34Z"/>
      <path class="cls-14" d="m139.84,296.36c1.17-.12,2.34-.24,3.51-.35-1.03.16-2.05.33-3.08.49-.14-.05-.29-.09-.43-.14Z"/>
      <path class="cls-14" d="m139.84,296.36c.14.05.29.09.43.14-1.18.11-2.35.21-3.53.32,1.03-.15,2.06-.31,3.09-.46Z"/>
      <path class="cls-1" d="m108.14,101.79c-.03-.09-.06-.18-.1-.27,1.05.08,2.1.16,3.16.24-.27.04-.53.08-.8.12-.75-.03-1.51-.06-2.26-.09Z"/>
      <path class="cls-7" d="m145.31,3.36c-1.04-.12-2.09-.25-3.13-.37,1.04.12,2.09.25,3.13.37Z"/>
      <path class="cls-14" d="m116.65,18.92c1.03-.11,2.07-.23,3.1-.34-.01.1-.03.2-.05.3-.65.05-1.3.1-1.95.15-.36-.04-.73-.07-1.09-.11Z"/>
      <path class="cls-10" d="m11.63,44.53c-.13-.13-.26-.26-.39-.39.3-.52.59-1.05.89-1.57-.17.66-.33,1.31-.5,1.97Z"/>
      <path class="cls-14" d="m104.18,296.11c1.06.11,2.11.23,3.17.34-1.04-.01-2.07-.03-3.11-.04-.02-.1-.04-.2-.05-.3Z"/>
      <path class="cls-8" d="m95.73,100.69c-1.06-.12-2.13-.25-3.19-.37,1.06.12,2.13.25,3.19.37Z"/>
      <path class="cls-6" d="m139.11,2.62c-.91-.13-1.83-.25-2.74-.38.91.13,1.83.25,2.74.38Z"/>
      <path class="cls-1" d="m134.51,101.54c-.03.09-.07.18-.1.27-.24.03-.48.05-.72.08-.66-.04-1.31-.07-1.97-.11.93-.08,1.86-.16,2.79-.24Z"/>
      <path class="cls-11" d="m109.23,19.68c.92-.12,1.83-.24,2.75-.36-.92.12-1.83.24-2.75.36Z"/>
      <path class="cls-5" d="m235.53,216.15c.96-.11,1.92-.22,2.88-.32-.96.11-1.92.22-2.88.32Z"/>
      <path class="cls-17" d="m98.76,21.22c.78-.1,1.55-.21,2.33-.31-.78.1-1.55.21-2.33.31Z"/>
      <path class="cls-14" d="m101.06,295.68c.8.1,1.61.2,2.41.31-.27.04-.53.08-.8.12-.45-.04-.9-.08-1.35-.12-.09-.1-.17-.21-.26-.31Z"/>
      <path class="cls-14" d="m109.97,296.49c.04.09.09.18.14.27-.82-.1-1.65-.2-2.47-.3.78,0,1.56.01,2.34.02Z"/>
      <path class="cls-1" d="m231.65,193.28c.82-.09,1.64-.18,2.47-.26-.04.09-.08.18-.12.27-.78,0-1.56,0-2.35,0Z"/>
      <path class="cls-1" d="m234,193.28c.04-.09.08-.18.12-.27.8-.01,1.6-.03,2.4-.04-.84.1-1.68.21-2.52.31Z"/>
      <path class="cls-14" d="m116.65,18.92c.36.04.73.07,1.09.11-.64.08-1.29.16-1.93.23.02-.1.04-.2.05-.3.26-.01.52-.03.78-.04Z"/>
      <path class="cls-14" d="m119.69,18.89c.02-.1.04-.2.05-.3.63,0,1.26,0,1.89,0-.65.1-1.29.21-1.94.31Z"/>
      <path class="cls-17" d="m104.56,20.44c.65-.1,1.3-.2,1.96-.3-.65.1-1.3.2-1.96.3Z"/>
      <path class="cls-17" d="m62.72,287.9c.65.14,1.3.28,1.95.42-.65-.14-1.3-.28-1.95-.42Z"/>
      <path class="cls-14" d="m101.06,295.68c.09.1.17.21.26.31-.73-.11-1.46-.22-2.18-.32.64,0,1.28.01,1.93.02Z"/>
      <path class="cls-17" d="m106.9,20.07c.66-.1,1.31-.2,1.97-.31-.66.1-1.31.2-1.97.31Z"/>
      <path class="cls-14" d="m230.23,61.54c-.16-.02-.32-.04-.48-.05.16-.2.31-.39.47-.59,0,.21.01.43.02.64Z"/>
      <path class="cls-14" d="m102.66,296.11c.27-.04.53-.08.8-.12.24.04.48.08.71.12.01.1.03.2.05.3-.52-.1-1.05-.2-1.57-.3Z"/>
      <path class="cls-3" d="m225.14,130.15c.02-.26.03-.52.05-.77-.02.26-.03.52-.05.77Z"/>
      <path class="cls-17" d="m240.96,192.51c.55-.1,1.11-.19,1.66-.29-.55.1-1.11.19-1.66.29Z"/>
      <path class="cls-10" d="m96.05,295.67c-.02-.22-.04-.45-.06-.67.3.2.59.4.88.6-.28.02-.55.05-.83.07Z"/>
      <path class="cls-17" d="m101.85,20.82c.41-.1.81-.2,1.22-.31-.41.1-.81.2-1.22.31Z"/>
      <path class="cls-17" d="m242.89,192.16c.43-.11.86-.22,1.28-.33-.43.11-.86.22-1.28.33Z"/>
      <path class="cls-17" d="m244.44,191.77c.41-.12.83-.25,1.24-.37-.41.12-.83.25-1.24.37Z"/>
      <path class="cls-14" d="m228.01,193.68l1.06.06-1.06-.06Z"/>
      <path class="cls-17" d="m240.24,192.59c.25-.04.5-.08.76-.12-.25.04-.5.08-.76.12Z"/>
      <path class="cls-7" d="m146.11,3.66c-.26-.1-.52-.2-.77-.3.26.1.52.2.77.3Z"/>
      <path class="cls-16" d="m23.23,69.28c.25.13.5.26.76.4-.25-.13-.5-.26-.76-.4Z"/>
      <path class="cls-13" d="m16.78,51.86c.08-.12.16-.25.24-.37-.08.12-.16.25-.24.37Z"/>
      <path class="cls-3" d="m218.15,66.59c.11-.04.22-.05.34-.04-.11.01-.23.02-.34.04Z"/>
      <path class="cls-2" d="m169.35,38.28c-.63.32-1.27.63-1.9.94-1.04-.48-2.08-.96-3.12-1.44-.01-.39-.03-.79-.04-1.18.27.07.54.13.81.2.31.22.62.45.93.67,1.11.27,2.21.54,3.32.81Z"/>
      <path class="cls-12" d="m56.93,39.04c-.79-.26-1.58-.53-2.36-.79.79-.21,1.56-.53,2.36-.59,1-.07,2.02.09,3.03.15-1.01.41-2.02.82-3.03,1.23Z"/>
      <path class="cls-2" d="m164.29,36.6c.01.39.03.79.04,1.18-1.04-.48-2.09-.97-3.13-1.45.26-.15.52-.3.77-.45.77.24,1.55.47,2.32.71Z"/>
      <path class="cls-2" d="m161.98,35.89c-.26.15-.52.3-.77.45-1.02-.44-2.05-.88-3.07-1.32,1.06.17,2.13.33,3.19.53.23.04.44.23.66.34Z"/>
      <path class="cls-15" d="m166.03,37.47c-.31-.22-.62-.45-.93-.67.31.22.62.45.93.67Z"/>
      <path class="cls-10" d="m171.68,39.05c-.29-.1-.58-.21-.86-.31.29.1.58.21.86.31Z"/>
      <path class="cls-10" d="m170.51,38.66c-.29-.1-.58-.2-.86-.31.29.1.58.2.86.31Z"/>
      <path class="cls-5" d="m170.61,40.91c.22.15.44.31.66.46-.22-.15-.44-.31-.66-.46Z"/>
      <path class="cls-5" d="m169.87,40.51c.22.12.45.24.67.37-.22-.12-.45-.24-.67-.37Z"/>
      <path class="cls-10" d="m172.84,39.44c-.29-.1-.57-.21-.86-.31.29.1.57.21.86.31Z"/>
      <path class="cls-5" d="m169.12,40.11c.22.12.43.23.65.35-.22-.12-.43-.23-.65-.35Z"/>
      <path class="cls-5" d="m171.27,41.38c.14.11.27.23.41.34-.14-.11-.27-.23-.41-.34Z"/>
      <path class="cls-5" d="m168.54,39.83c.15.07.31.15.46.22-.15-.07-.31-.15-.46-.22Z"/>
      <path class="cls-10" d="m167.89,39.44c.1.09.19.17.29.26-.1-.09-.19-.17-.29-.26Z"/>
    </g>
  </g>
</svg>