<svg width="41" height="41" viewBox="0 0 41 41" fill="none" xmlns="http://www.w3.org/2000/svg">
<path fill-rule="evenodd" clip-rule="evenodd" d="M39.1762 0.993762C38.0046 -0.177807 36.102 -0.180924 34.9304 0.990645L20.0562 15.8648L5.18193 0.990653C4.01036 -0.180916 2.10774 -0.177797 0.936162 0.993772C-0.235415 2.16534 -0.238532 4.06795 0.933044 5.23952L15.8073 20.1137L0.933033 34.9878C-0.238544 36.1594 -0.235425 38.062 0.936152 39.2335C2.10773 40.4051 4.01035 40.4082 5.18193 39.2367L20.0562 24.3625L34.9304 39.2367C36.102 40.4082 38.0046 40.4051 39.1762 39.2336C40.3478 38.062 40.3509 36.1594 39.1793 34.9878L24.3051 20.1137L39.1793 5.23951C40.3509 4.06794 40.3477 2.16533 39.1762 0.993762Z" fill="#505050"/>
</svg>
