<svg width="40" height="40" viewBox="0 0 40 40" fill="none" xmlns="http://www.w3.org/2000/svg">
<path fill-rule="evenodd" clip-rule="evenodd" d="M20 40C31.0457 40 40 31.0457 40 20C40 8.9543 31.0457 0 20 0C8.9543 0 0 8.9543 0 20C0 31.0457 8.9543 40 20 40ZM16.9999 21.5C16.9999 21.6643 17.0158 21.8248 17.046 21.9803C17.0099 22.1478 16.9905 22.3217 16.9898 22.5C16.9842 23.8807 18.0989 25.0045 19.4796 25.0101L30.5884 25.055C31.9691 25.0606 33.0929 23.9458 33.0985 22.5651C33.104 21.1844 31.9893 20.0606 30.6086 20.055L21.9999 20.0202V6.5C21.9999 5.11929 20.8806 4 19.4999 4C18.1192 4 16.9999 5.11929 16.9999 6.5V21.5Z" fill="#505050"/>
</svg>
