<svg width="40" height="40" viewBox="0 0 40 40" fill="none" xmlns="http://www.w3.org/2000/svg">
<path fill-rule="evenodd" clip-rule="evenodd" d="M20 40C8.95431 40 0 31.0457 0 20C0 8.9543 8.95431 0 20 0C31.0457 0 40 8.9543 40 20C40 31.0457 31.0457 40 20 40ZM20.5 23.9922C20.3683 23.9918 20.239 23.9812 20.1129 23.9612C19.9564 23.9926 19.7946 24.0094 19.6289 24.0101L8.52015 24.055C7.13945 24.0605 6.01564 22.9458 6.01006 21.5651C6.00448 20.1844 7.11924 19.0606 8.49994 19.055L18.0154 19.0165L18.0574 5.48446C18.0617 4.10375 19.1844 2.98795 20.5651 2.99223C21.9458 2.99651 23.0616 4.11927 23.0574 5.49998L23.0077 21.5C23.0034 22.8807 21.8807 23.9965 20.5 23.9922Z" fill="#505050"/>
</svg>
