<svg width="40" height="22" viewBox="0 0 40 22" fill="none" xmlns="http://www.w3.org/2000/svg">
<path fill-rule="evenodd" clip-rule="evenodd" d="M38.2388 15.1849C39.9668 13.1174 40.4384 10.809 39.5864 8.5888C38.7345 6.36855 36.6025 4.34973 33.4942 2.82008C30.386 1.29043 26.4601 0.328 22.2763 0.0699729C18.0924 -0.188055 13.864 0.271485 10.1937 1.38309C6.52337 2.4947 3.59852 4.20166 1.83598 6.26066C0.073433 8.31967 -0.436855 10.6256 0.377842 12.8499C1.19254 15.0742 3.29065 17.1033 6.37312 18.648C9.4556 20.1927 13.3651 21.1742 17.5445 21.4525L20 10.767L38.2388 15.1849ZM17.8768 4.1229C17.8768 5.29535 16.5612 6.24581 14.9384 6.24581C13.3156 6.24581 12 5.29535 12 4.1229C12 2.95046 13.3156 2 14.9384 2C16.5612 2 17.8768 2.95046 17.8768 4.1229ZM7.63114 10.7263C9.25397 10.7263 10.5695 9.77582 10.5695 8.60337C10.5695 7.43093 9.25397 6.48047 7.63114 6.48047C6.00831 6.48047 4.69275 7.43093 4.69275 8.60337C4.69275 9.77582 6.00831 10.7263 7.63114 10.7263ZM28.2231 4.02234C28.2231 5.13308 26.9075 6.03352 25.2847 6.03352C23.6619 6.03352 22.3463 5.13308 22.3463 4.02234C22.3463 2.9116 23.6619 2.01117 25.2847 2.01117C26.9075 2.01117 28.2231 2.9116 28.2231 4.02234ZM33.106 10.0559C34.7288 10.0559 36.0444 9.15542 36.0444 8.04468C36.0444 6.93394 34.7288 6.03351 33.106 6.03351C31.4832 6.03351 30.1676 6.93394 30.1676 8.04468C30.1676 9.15542 31.4832 10.0559 33.106 10.0559Z" fill="#505050"/>
</svg>
