<svg width="33" height="40" viewBox="0 0 33 40" fill="none" xmlns="http://www.w3.org/2000/svg">
<path d="M4.66674 8.67502C4.61005 8.07934 5.04688 7.5494 5.64244 7.49138C6.23799 7.43337 6.76674 7.86922 6.82343 8.4649L9.79356 39.673C8.60245 39.789 7.54495 38.9173 7.43157 37.7259L4.66674 8.67502Z" fill="#505050"/>
<path d="M26.1132 8.29907C26.1699 7.70338 26.6986 7.26752 27.2942 7.32554C27.8897 7.38356 28.3266 7.91349 28.2699 8.50917L25.4781 37.8428C25.3647 39.0341 24.3072 39.9059 23.1161 39.7898L26.1132 8.29907Z" fill="#505050"/>
<path d="M8.47595 38.6698C8.47595 38.1509 8.89657 37.7303 9.41542 37.7303H22.8834C23.4356 37.7303 23.8834 38.178 23.8834 38.7303V38.9224C23.8834 39.4747 23.4356 39.9224 22.8834 39.9224H9.72858C9.03677 39.9224 8.47595 39.3616 8.47595 38.6698Z" fill="#505050"/>
<rect y="6.33273" width="32.5" height="2.1921" rx="1.09605" fill="#505050"/>
<rect width="1.92589" height="22.8956" rx="0.962947" transform="matrix(0.998999 0.0447356 -0.0443815 0.999015 19.5563 12)" fill="#505050"/>
<rect width="1.92589" height="22.8956" rx="0.962947" transform="matrix(0.998999 -0.0447356 0.0443815 0.999015 11.7 12.0862)" fill="#505050"/>
<rect x="7.46289" y="0.243561" width="17.8148" height="2.1921" rx="1.09605" fill="#505050"/>
<rect width="5.49548" height="2.16838" rx="1.08419" transform="matrix(0.256014 -0.966673 0.965163 0.26165 6.25928 5.31235)" fill="#505050"/>
<rect width="5.49548" height="2.16838" rx="1.08419" transform="matrix(0.256014 0.966673 -0.965163 0.26165 24.9631 0)" fill="#505050"/>
</svg>
