<svg width="41" height="33" viewBox="0 0 41 33" fill="none" xmlns="http://www.w3.org/2000/svg">
<path fill-rule="evenodd" clip-rule="evenodd" d="M12.1683 9.35201V8.35201H11.1683H5.66432V5.21601H12.3683H13.3683V4.21601V1.64801V0.64801H12.3683H1.42432H0.424316V1.64801V19V20H1.42432H4.13916V32.6316H7.71516V22.5756C7.71516 22.3436 7.70716 22.0916 7.69116 21.8196C7.67516 21.5396 7.65516 21.2556 7.63116 20.9676L12.2752 29.9796C12.4192 30.2596 12.6112 30.4716 12.8512 30.6156C13.0992 30.7596 13.3792 30.8316 13.6912 30.8316H14.2432C14.5552 30.8316 14.8312 30.7596 15.0712 30.6156C15.3192 30.4716 15.5152 30.2596 15.6592 29.9796L20.3032 20.9916C20.2712 21.2716 20.2472 21.5476 20.2312 21.8196C20.2232 22.0916 20.2192 22.3436 20.2192 22.5756V32.6316H23.7952V28.3776C24.1746 29.0706 24.6383 29.6966 25.1862 30.2556C25.9862 31.0556 26.9462 31.6836 28.0662 32.1396C29.1862 32.5956 30.4262 32.8236 31.7862 32.8236C33.1462 32.8236 34.3822 32.5956 35.4942 32.1396C36.6142 31.6836 37.5702 31.0556 38.3622 30.2556C39.1542 29.4476 39.7662 28.4996 40.1982 27.4116C40.6382 26.3236 40.8582 25.1476 40.8582 23.8836C40.8582 22.6276 40.6382 21.4556 40.1982 20.3676C39.7662 19.2796 39.1542 18.3356 38.3622 17.5356C37.5702 16.7356 36.6142 16.1076 35.4942 15.6516C34.3822 15.1876 33.1462 14.9556 31.7862 14.9556C30.4262 14.9556 29.1862 15.1836 28.0662 15.6396C27.9167 15.7005 27.77 15.7644 27.6262 15.8314L25.0562 12.0403C25.025 11.9921 24.993 11.9446 24.9601 11.898C25.0914 11.8223 25.2194 11.7423 25.344 11.6579C25.9064 11.2825 26.3888 10.8372 26.7807 10.3191C27.1776 9.80491 27.4773 9.23334 27.6795 8.61001C27.8911 7.9823 27.9941 7.32366 27.9941 6.64001C27.9941 5.7869 27.8454 4.98166 27.5325 4.2379C27.2099 3.46271 26.7066 2.80323 26.0418 2.2648C25.3765 1.71945 24.5541 1.32664 23.6118 1.05934C22.6558 0.777827 21.549 0.64801 20.3101 0.64801H15.0181H14.0181V1.64801V19V20H15.0181H17.2065L14.8672 24.6036C14.6992 24.9076 14.5392 25.2276 14.3872 25.5636C14.2432 25.8996 14.1032 26.2436 13.9672 26.5956C13.8312 26.2516 13.6872 25.9156 13.5352 25.5876C13.3912 25.2596 13.2392 24.9436 13.0792 24.6396L8.57916 15.7716C8.49916 15.6196 8.41516 15.5036 8.32716 15.4236C8.24716 15.3356 8.15516 15.2716 8.05116 15.2316C7.94716 15.1916 7.82716 15.1676 7.69116 15.1596C7.56316 15.1516 7.41116 15.1476 7.23516 15.1476H5.66432V12.932H11.1683H12.1683V11.932V9.35201ZM4.66432 15.1476V12.932V11.932H5.66432H10.1683H11.1683V10.932V10.352V9.35201H10.1683H5.66432H4.66432V8.35201V5.21601V4.21601H5.66432H11.3683H12.3683V3.21601V2.64801V1.64801H11.3683H2.42432H1.42432V2.64801V18V19H2.42432H3.66432H4.13916V15.1476H4.66432ZM18.2461 17.9542L17.7146 19H17.2461H16.0181H15.0181V18V2.64801V1.64801H16.0181H20.3101C21.4861 1.64801 22.4941 1.77201 23.3341 2.02001C24.1821 2.26001 24.8741 2.60001 25.4101 3.04001C25.9541 3.48001 26.3541 4.00801 26.6101 4.62401C26.8661 5.23201 26.9941 5.90401 26.9941 6.64001C26.9941 7.22401 26.9061 7.77601 26.7301 8.29601C26.5621 8.81601 26.3141 9.28801 25.9861 9.71201C25.6661 10.136 25.2661 10.508 24.7861 10.828C24.6203 10.9404 24.4461 11.0444 24.2635 11.1401C23.9263 11.3167 23.5605 11.4646 23.1661 11.584C23.3741 11.704 23.5661 11.848 23.7421 12.016C23.8476 12.112 23.9474 12.2194 24.0414 12.3384C24.1042 12.4178 24.1644 12.5023 24.2221 12.592L26.7394 16.3054C26.1678 16.6536 25.6501 17.0597 25.1862 17.5236C24.9241 17.7883 24.6813 18.0689 24.4577 18.3652C24.4552 18.3608 24.4526 18.3564 24.4501 18.352L23.7952 17.3546V15.1476H22.3461L20.8021 12.796C20.6661 12.588 20.5141 12.44 20.3461 12.352C20.1861 12.264 19.9461 12.22 19.6261 12.22H19.2461H18.2461V13.22V17.9542ZM19.2461 15.9863L19.3552 15.7716C19.4352 15.6196 19.5152 15.5036 19.5952 15.4236C19.6832 15.3356 19.7792 15.2716 19.8832 15.2316C19.9872 15.1916 20.1032 15.1676 20.2312 15.1596C20.3672 15.1516 20.5232 15.1476 20.6992 15.1476H21.1498L19.9661 13.3449L19.9651 13.3433C19.9244 13.2811 19.8955 13.2516 19.8826 13.24C19.8808 13.2396 19.8787 13.2392 19.8765 13.2387C19.8733 13.2381 19.8697 13.2373 19.8657 13.2366C19.8203 13.2283 19.7431 13.22 19.6261 13.22H19.2461V15.9863ZM23.7952 19.162V19.3907C23.8205 19.3445 23.8462 19.2987 23.8724 19.2531C23.846 19.2236 23.8203 19.1932 23.7952 19.162ZM27.9688 20C27.6343 20.4387 27.3708 20.9572 27.1782 21.5556C26.9542 22.2436 26.8422 23.0196 26.8422 23.8836C26.8422 24.7556 26.9542 25.5396 27.1782 26.2356C27.4022 26.9236 27.7222 27.5076 28.1382 27.9876C28.5622 28.4676 29.0782 28.8356 29.6862 29.0916C30.3022 29.3396 31.0022 29.4636 31.7862 29.4636C32.5622 29.4636 33.2542 29.3396 33.8622 29.0916C34.4702 28.8356 34.9822 28.4676 35.3982 27.9876C35.8222 27.5076 36.1462 26.9236 36.3702 26.2356C36.5942 25.5396 36.7062 24.7556 36.7062 23.8836C36.7062 23.0196 36.5942 22.2436 36.3702 21.5556C36.1462 20.8596 35.8222 20.2716 35.3982 19.7916C34.9822 19.3116 34.4702 18.9436 33.8622 18.6876C33.2542 18.4316 32.5622 18.3036 31.7862 18.3036C31.0022 18.3036 30.3022 18.4316 29.6862 18.6876C29.6541 18.7011 29.6222 18.715 29.5906 18.7291L30.4521 20H28.5661H27.9688ZM21.5298 8.72731L21.5248 8.72903C21.205 8.83754 20.7904 8.90401 20.2621 8.90401H19.2461V5.14401H20.3101C21.4009 5.14401 22.0107 5.36528 22.3282 5.62549L22.3282 5.62551L22.3335 5.62975C22.6409 5.8782 22.8381 6.24402 22.8381 6.88001C22.8381 7.20943 22.7845 7.48818 22.6908 7.72761C22.6034 7.95111 22.4717 8.1444 22.2861 8.31511C22.1227 8.46479 21.8822 8.60987 21.5298 8.72731ZM18.2461 4.14401V5.14401V8.90401V9.90401H19.2461H20.2621C20.8701 9.90401 21.3981 9.82801 21.8461 9.67601C22.3021 9.52401 22.6741 9.31601 22.9621 9.05201C23.2581 8.78001 23.4781 8.46001 23.6221 8.09201C23.7661 7.72401 23.8381 7.32001 23.8381 6.88001C23.8381 6.00001 23.5461 5.32401 22.9621 4.85201C22.3861 4.38001 21.5021 4.14401 20.3101 4.14401H19.2461H18.2461Z" fill="#505050"/>
</svg>
