<svg width="40" height="40" viewBox="0 0 40 40" fill="none" xmlns="http://www.w3.org/2000/svg">
<path fill-rule="evenodd" clip-rule="evenodd" d="M7 19C4.79086 19 3 20.7909 3 23V36C3 38.2091 4.79086 40 7 40H33C35.2091 40 37 38.2091 37 36V23C37 20.7909 35.2091 19 33 19H7ZM9.77783 23.9998C8.67326 23.9998 7.77783 24.8952 7.77783 25.9998V29.9998C7.77783 31.1044 8.67326 31.9998 9.77783 31.9998H16.7778C17.8824 31.9998 18.7778 31.1044 18.7778 29.9998V25.9998C18.7778 24.8952 17.8824 23.9998 16.7778 23.9998H9.77783Z" fill="#505050"/>
<path d="M19.3492 0.557822C19.7237 0.236831 20.2763 0.23683 20.6508 0.557822L37.9475 15.3836C38.6524 15.9878 38.2252 17.1429 37.2967 17.1429H2.70325C1.77485 17.1429 1.34757 15.9878 2.05246 15.3836L19.3492 0.557822Z" fill="#505050"/>
</svg>
