<svg width="40" height="38" viewBox="0 0 40 38" fill="none" xmlns="http://www.w3.org/2000/svg">
<path fill-rule="evenodd" clip-rule="evenodd" d="M3 0C1.34315 0 0 1.34315 0 3V6C0 7.65685 1.34315 9 3 9C1.34315 9 0 10.3431 0 12V15C0 16.6569 1.34315 18 3 18C1.34315 18 0 19.3431 0 21V35C0 36.6569 1.34315 38 3 38H37C38.6569 38 40 36.6569 40 35V21C40 19.3431 38.6569 18 37 18C38.6569 18 40 16.6569 40 15V12C40 10.3431 38.6569 9 37 9C38.6569 9 40 7.65685 40 6V3C40 1.34315 38.6569 0 37 0H3ZM4 2C3.44772 2 3 2.44772 3 3V6C3 6.55228 3.44772 7 4 7H12C12.5523 7 13 6.55228 13 6V3C13 2.44772 12.5523 2 12 2H4ZM3 12C3 11.4477 3.44772 11 4 11H12C12.5523 11 13 11.4477 13 12V15C13 15.5523 12.5523 16 12 16H4C3.44772 16 3 15.5523 3 15V12ZM15 12C15 11.4477 15.4477 11 16 11H24C24.5523 11 25 11.4477 25 12V15C25 15.5523 24.5523 16 24 16H16C15.4477 16 15 15.5523 15 15V12ZM28 11C27.4477 11 27 11.4477 27 12V15C27 15.5523 27.4477 16 28 16H36C36.5523 16 37 15.5523 37 15V12C37 11.4477 36.5523 11 36 11H28ZM3 21C3 20.4477 3.44772 20 4 20H36C36.5523 20 37 20.4477 37 21V25C37 25.5523 36.5523 26 36 26H4C3.44772 26 3 25.5523 3 25V21ZM3 30C3 29.4477 3.44772 29 4 29H36C36.5523 29 37 29.4477 37 30V34C37 34.5523 36.5523 35 36 35H4C3.44772 35 3 34.5523 3 34V30Z" fill="#505050"/>
</svg>
