<svg width="40" height="39" viewBox="0 0 40 39" fill="none" xmlns="http://www.w3.org/2000/svg">
<path fill-rule="evenodd" clip-rule="evenodd" d="M3 0C1.34314 0 0 1.34314 0 3V6C0 7.65686 1.34314 9 3 9H37C38.6569 9 40 7.65686 40 6V3C40 1.34314 38.6569 0 37 0H3ZM6 2C5.44769 2 5 2.44772 5 3V6C5 6.55228 5.44769 7 6 7H14C14.5523 7 15 6.55228 15 6V3C15 2.44772 14.5523 2 14 2H6Z" fill="#505050"/>
<path fill-rule="evenodd" clip-rule="evenodd" d="M3 12C1.34315 12 0 13.3431 0 15V36C0 37.6569 1.34315 39 3 39H37C38.6569 39 40 37.6569 40 36V15C40 13.3431 38.6569 12 37 12H3ZM4 16C3.44772 16 3 16.4477 3 17V18C3 18.5523 3.44772 19 4 19H36C36.5523 19 37 18.5523 37 18V17C37 16.4477 36.5523 16 36 16H4ZM3 25C3 24.4477 3.44772 24 4 24H36C36.5523 24 37 24.4477 37 25V26C37 26.5523 36.5523 27 36 27H4C3.44772 27 3 26.5523 3 26V25ZM4 32C3.44772 32 3 32.4477 3 33V34C3 34.5523 3.44772 35 4 35H36C36.5523 35 37 34.5523 37 34V33C37 32.4477 36.5523 32 36 32H4Z" fill="#505050"/>
</svg>
