<svg width="40" height="40" viewBox="0 0 40 40" fill="none" xmlns="http://www.w3.org/2000/svg">
<path fill-rule="evenodd" clip-rule="evenodd" d="M0 1.36986C0 0.613308 0.613308 0 1.36986 0H38.6301C39.3867 0 40 0.613309 40 1.36986V38.6301C40 39.3867 39.3867 40 38.6301 40H1.36986C0.613308 40 0 39.3867 0 38.6301V1.36986ZM4 4.81356C4 4.36424 4.35817 4 4.8 4H35.2C35.6418 4 36 4.36424 36 4.81356V35.1864C36 35.6358 35.6418 36 35.2 36H7.02393L18.4584 24.5655L18.3967 28.8819C18.3806 30.0068 19.2795 30.9058 20.4045 30.8897C21.5294 30.8736 22.4544 29.9486 22.4705 28.8236L22.5992 19.8268C22.673 19.2335 22.4821 18.6134 22.0266 18.1579C21.6622 17.7935 21.1927 17.5985 20.7157 17.5727C20.6575 17.5686 20.5986 17.5669 20.5391 17.5677L11.3461 17.6992C10.2211 17.7153 9.29612 18.6403 9.28003 19.7653C9.26394 20.8902 10.1629 21.7892 11.2878 21.7731L15.6341 21.7109L4 33.345V4.81356Z" fill="#505050"/>
</svg>
