<svg width="40" height="40" viewBox="0 0 40 40" fill="none" xmlns="http://www.w3.org/2000/svg">
<path fill-rule="evenodd" clip-rule="evenodd" d="M35.4003 17H37.5C38.8807 17 40 18.1193 40 19.5C40 20.8807 38.8807 22 37.5 22H35.4003C34.4899 23.7808 32.6373 25 30.5 25C28.3627 25 26.5101 23.7808 25.5997 22H2.5C1.11929 22 0 20.8807 0 19.5C0 18.1193 1.11929 17 2.5 17H25.5997C26.5101 15.2192 28.3627 14 30.5 14C32.6373 14 34.4899 15.2192 35.4003 17Z" fill="#505050"/>
<path fill-rule="evenodd" clip-rule="evenodd" d="M15.4003 3H37.5C38.8807 3 40 4.11929 40 5.5C40 6.88071 38.8807 8 37.5 8H15.4003C14.4899 9.78084 12.6373 11 10.5 11C8.36266 11 6.51007 9.78084 5.59971 8H2.5C1.11929 8 0 6.88071 0 5.5C0 4.11929 1.11929 3 2.5 3H5.59971C6.51007 1.21916 8.36266 0 10.5 0C12.6373 0 14.4899 1.21916 15.4003 3Z" fill="#505050"/>
<path fill-rule="evenodd" clip-rule="evenodd" d="M25.4003 32H37.5C38.8807 32 40 33.1193 40 34.5C40 35.8807 38.8807 37 37.5 37H25.4003C24.4899 38.7808 22.6373 40 20.5 40C18.3627 40 16.5101 38.7808 15.5997 37H2.5C1.11929 37 0 35.8807 0 34.5C0 33.1193 1.11929 32 2.5 32H15.5997C16.5101 30.2192 18.3627 29 20.5 29C22.6373 29 24.4899 30.2192 25.4003 32Z" fill="#505050"/>
</svg>
