<svg width="40" height="40" viewBox="0 0 40 40" fill="none" xmlns="http://www.w3.org/2000/svg">
<path d="M34.5 20C34.5 28.0081 28.0081 34.5 20 34.5C11.9919 34.5 5.5 28.0081 5.5 20C5.5 11.9919 11.9919 5.5 20 5.5C28.0081 5.5 34.5 11.9919 34.5 20ZM12.75 20C12.75 24.0041 15.9959 27.25 20 27.25C24.0041 27.25 27.25 24.0041 27.25 20C27.25 15.9959 24.0041 12.75 20 12.75C15.9959 12.75 12.75 15.9959 12.75 20Z" fill="#505050"/>
<rect x="23.3044" y="12.9798" width="12.75" height="5.75" rx="2.875" transform="rotate(-45 23.3044 12.9798)" fill="#505050"/>
<rect x="4" y="32.2843" width="12.75" height="5.75" rx="2.875" transform="rotate(-45 4 32.2843)" fill="#505050"/>
<path d="M25.2051 29.0941C24.0823 27.9714 24.0823 26.151 25.2051 25.0283C26.3278 23.9055 28.1482 23.9055 29.2709 25.0283L34.2207 29.978C35.3434 31.1008 35.3434 32.9211 34.2207 34.0439C33.0979 35.1666 31.2776 35.1666 30.1548 34.0439L25.2051 29.0941Z" fill="#505050"/>
<path d="M5.94797 9.83707C4.82521 8.71431 4.82521 6.89396 5.94797 5.77121C7.07073 4.64845 8.89108 4.64845 10.0138 5.77121L14.9635 10.7209C16.0863 11.8437 16.0863 13.664 14.9635 14.7868C13.8408 15.9095 12.0204 15.9095 10.8977 14.7868L5.94797 9.83707Z" fill="#505050"/>
<path d="M27.25 20.125C27.25 18.5372 28.5372 17.25 30.125 17.25H37.125C38.7128 17.25 40 18.5372 40 20.125C40 21.7128 38.7128 23 37.125 23H30.125C28.5372 23 27.25 21.7128 27.25 20.125Z" fill="#505050"/>
<path d="M0 20.125C0 18.5372 1.28718 17.25 2.875 17.25H9.875C11.4628 17.25 12.75 18.5372 12.75 20.125C12.75 21.7128 11.4628 23 9.875 23H2.875C1.28718 23 0 21.7128 0 20.125Z" fill="#505050"/>
<rect x="17.25" y="27.25" width="5.75" height="12.75" rx="2.875" fill="#505050"/>
<rect x="17.25" width="5.75" height="12.75" rx="2.875" fill="#505050"/>
</svg>
