<svg width="40" height="40" viewBox="0 0 40 40" fill="none" xmlns="http://www.w3.org/2000/svg">
<rect y="11" width="7.79727" height="7.63158" rx="2" fill="#505050" fill-opacity="0.6"/>
<rect x="10.9163" y="11" width="7.79727" height="18.3158" rx="2" fill="#505050" fill-opacity="0.6"/>
<rect x="21.8323" y="21.6842" width="7.79727" height="18.3158" rx="2" fill="#505050" fill-opacity="0.6"/>
<rect y="32.3684" width="7.79727" height="7.63158" rx="2" fill="#505050" fill-opacity="0.6"/>
<rect x="10.916" y="32.3684" width="7.79727" height="7.63158" rx="2" fill="#505050" fill-opacity="0.6"/>
<rect y="21.6842" width="7.79727" height="7.63158" rx="2" fill="#505050" fill-opacity="0.6"/>
<rect x="21.8323" y="11" width="7.79727" height="7.63158" rx="2" fill="#505050" fill-opacity="0.6"/>
<path fill-rule="evenodd" clip-rule="evenodd" d="M24.0741 33.0769C32.8698 33.0769 40 25.6724 40 16.5385C40 7.40452 32.8698 0 24.0741 0C15.2785 0 8.14819 7.40452 8.14819 16.5385C8.14819 25.6724 15.2785 33.0769 24.0741 33.0769ZM20.6665 17.3461C20.6665 18.1769 21.0717 18.913 21.6953 19.3676C21.8516 20.5935 22.8962 21.5436 24.1654 21.5489L31.9928 21.5818C33.3735 21.5876 34.4971 20.473 34.5025 19.0923C34.5079 17.7116 33.3929 16.5876 32.0122 16.5818L25.6665 16.5552V5.80768C25.6665 4.42697 24.5472 3.30768 23.1665 3.30768C21.7858 3.30768 20.6665 4.42697 20.6665 5.80768V17.3461Z" fill="#505050"/>
</svg>
